<svg id="Group_238" data-name="Group 238" xmlns="http://www.w3.org/2000/svg" width="39" height="39" viewBox="0 0 39 39">
  <circle id="Ellipse_8" data-name="Ellipse 8" cx="19.5" cy="19.5" r="19.5" fill="#e03c31"/>
  <path id="Path_56" data-name="Path 56" d="M16.976,3.652A6.37,6.37,0,0,1,15,4.218a3.766,3.766,0,0,0,1.556-1.91,6.421,6.421,0,0,1-2.193.849,3.424,3.424,0,0,0-2.546-1.132A3.472,3.472,0,0,0,8.347,5.491a2.652,2.652,0,0,0,.071.778A9.766,9.766,0,0,1,1.2,2.591a3.193,3.193,0,0,0-.5,1.768,3.551,3.551,0,0,0,1.556,2.9A2.852,2.852,0,0,1,.707,6.835v.071a3.431,3.431,0,0,0,2.759,3.4,3.584,3.584,0,0,1-.92.141,1.958,1.958,0,0,1-.637-.071,3.353,3.353,0,0,0,3.254,2.4A7.076,7.076,0,0,1,.849,14.262,3.444,3.444,0,0,1,0,14.191a9.9,9.9,0,0,0,5.305,1.556,9.813,9.813,0,0,0,9.9-9.9V5.42A8.381,8.381,0,0,0,16.976,3.652Z" transform="translate(11 10.975)" fill="#fff"/>
</svg>
